<svg xmlns="http://www.w3.org/2000/svg" width="224.88" viewBox="0 0 224.88 225" height="225" version="1.0"><defs><clipPath id="a"><path d="M 48.058594 15 L 148 15 L 148 93 L 48.058594 93 Z M 48.058594 15"/></clipPath><clipPath id="b"><path d="M 48.058594 45 L 184.488281 45 L 184.488281 174.621094 L 48.058594 174.621094 Z M 48.058594 45"/></clipPath></defs><g clip-path="url(#a)"><path fill="#757676" d="M 147.699219 33.847656 L 115.863281 15.097656 L 48.214844 54.9375 L 48.058594 55.023438 L 48.058594 92.519531 L 147.25 34.113281 Z M 147.699219 33.847656"/></g><g clip-path="url(#b)"><path fill="#757676" d="M 184.476562 72.601562 L 184.476562 55.503906 L 167.246094 45.355469 L 48.058594 115.539062 L 48.058594 134.222656 L 116.425781 174.480469 L 184.324219 134.5 L 184.476562 134.410156 L 184.476562 96.875 L 116.164062 137.097656 L 95.554688 124.960938 L 184.324219 72.6875 Z M 184.476562 72.601562"/></g><g fill="#757676"><g><g><path d="M 2.296875 -3.921875 C 2.804688 -3.191406 3.335938 -2.625 3.890625 -2.21875 C 4.441406 -1.8125 5.15625 -1.609375 6.03125 -1.609375 C 6.457031 -1.609375 6.863281 -1.675781 7.25 -1.8125 C 7.632812 -1.957031 7.945312 -2.160156 8.1875 -2.421875 C 8.4375 -2.679688 8.5625 -2.988281 8.5625 -3.34375 C 8.5625 -3.957031 8.296875 -4.4375 7.765625 -4.78125 C 7.242188 -5.132812 6.507812 -5.40625 5.5625 -5.59375 C 4.34375 -5.84375 3.375 -6.269531 2.65625 -6.875 C 1.9375 -7.488281 1.578125 -8.378906 1.578125 -9.546875 C 1.578125 -10.285156 1.785156 -10.925781 2.203125 -11.46875 C 2.617188 -12.019531 3.164062 -12.441406 3.84375 -12.734375 C 4.53125 -13.035156 5.269531 -13.1875 6.0625 -13.1875 C 7.082031 -13.1875 7.960938 -12.988281 8.703125 -12.59375 C 9.453125 -12.195312 10.035156 -11.632812 10.453125 -10.90625 L 9.046875 -9.515625 C 8.710938 -10.066406 8.289062 -10.515625 7.78125 -10.859375 C 7.269531 -11.210938 6.675781 -11.390625 6 -11.390625 C 5.320312 -11.390625 4.75 -11.226562 4.28125 -10.90625 C 3.8125 -10.59375 3.578125 -10.160156 3.578125 -9.609375 C 3.578125 -8.972656 3.820312 -8.507812 4.3125 -8.21875 C 4.800781 -7.925781 5.453125 -7.695312 6.265625 -7.53125 C 6.992188 -7.375 7.6875 -7.140625 8.34375 -6.828125 C 9 -6.523438 9.535156 -6.128906 9.953125 -5.640625 C 10.367188 -5.148438 10.578125 -4.554688 10.578125 -3.859375 C 10.578125 -2.617188 10.15625 -1.632812 9.3125 -0.90625 C 8.46875 -0.175781 7.304688 0.1875 5.828125 0.1875 C 4.828125 0.1875 3.914062 -0.0078125 3.09375 -0.40625 C 2.269531 -0.800781 1.546875 -1.445312 0.921875 -2.34375 Z M 2.296875 -3.921875" transform="translate(58.116 201.744)"/></g></g></g><g fill="#757676"><g><g><path d="M 6.421875 -9.921875 C 7.296875 -9.921875 8.078125 -9.707031 8.765625 -9.28125 C 9.453125 -8.851562 9.992188 -8.257812 10.390625 -7.5 C 10.785156 -6.75 10.984375 -5.878906 10.984375 -4.890625 C 10.984375 -3.910156 10.785156 -3.039062 10.390625 -2.28125 C 9.992188 -1.519531 9.453125 -0.921875 8.765625 -0.484375 C 8.085938 -0.046875 7.328125 0.171875 6.484375 0.171875 C 5.785156 0.171875 5.15625 0.0234375 4.59375 -0.265625 C 4.03125 -0.566406 3.585938 -0.910156 3.265625 -1.296875 L 3.265625 4.09375 L 1.34375 4.09375 L 1.34375 -9.765625 L 3.265625 -9.765625 L 3.265625 -8.34375 C 3.554688 -8.75 3.984375 -9.113281 4.546875 -9.4375 C 5.117188 -9.757812 5.742188 -9.921875 6.421875 -9.921875 Z M 6.171875 -8.15625 C 5.585938 -8.15625 5.066406 -8.007812 4.609375 -7.71875 C 4.160156 -7.4375 3.804688 -7.050781 3.546875 -6.5625 C 3.296875 -6.070312 3.171875 -5.515625 3.171875 -4.890625 C 3.171875 -4.265625 3.296875 -3.703125 3.546875 -3.203125 C 3.804688 -2.710938 4.160156 -2.320312 4.609375 -2.03125 C 5.066406 -1.738281 5.585938 -1.59375 6.171875 -1.59375 C 6.753906 -1.59375 7.265625 -1.738281 7.703125 -2.03125 C 8.148438 -2.320312 8.5 -2.710938 8.75 -3.203125 C 9.007812 -3.703125 9.140625 -4.265625 9.140625 -4.890625 C 9.140625 -5.515625 9.007812 -6.070312 8.75 -6.5625 C 8.5 -7.050781 8.148438 -7.4375 7.703125 -7.71875 C 7.265625 -8.007812 6.753906 -8.15625 6.171875 -8.15625 Z M 6.171875 -8.15625" transform="translate(69.705 201.744)"/></g></g></g><g fill="#757676"><g><g><path d="M 10.6875 -4.890625 C 10.6875 -3.898438 10.460938 -3.019531 10.015625 -2.25 C 9.578125 -1.488281 8.984375 -0.890625 8.234375 -0.453125 C 7.484375 -0.0234375 6.644531 0.1875 5.71875 0.1875 C 4.789062 0.1875 3.945312 -0.0234375 3.1875 -0.453125 C 2.4375 -0.890625 1.84375 -1.488281 1.40625 -2.25 C 0.96875 -3.019531 0.75 -3.898438 0.75 -4.890625 C 0.75 -5.878906 0.96875 -6.753906 1.40625 -7.515625 C 1.84375 -8.273438 2.4375 -8.867188 3.1875 -9.296875 C 3.945312 -9.734375 4.789062 -9.953125 5.71875 -9.953125 C 6.644531 -9.953125 7.484375 -9.734375 8.234375 -9.296875 C 8.984375 -8.867188 9.578125 -8.273438 10.015625 -7.515625 C 10.460938 -6.753906 10.6875 -5.878906 10.6875 -4.890625 Z M 8.734375 -4.890625 C 8.742188 -5.546875 8.613281 -6.125 8.34375 -6.625 C 8.082031 -7.125 7.722656 -7.515625 7.265625 -7.796875 C 6.804688 -8.078125 6.289062 -8.21875 5.71875 -8.21875 C 5.15625 -8.21875 4.640625 -8.078125 4.171875 -7.796875 C 3.703125 -7.515625 3.332031 -7.125 3.0625 -6.625 C 2.800781 -6.125 2.675781 -5.546875 2.6875 -4.890625 C 2.675781 -4.242188 2.800781 -3.671875 3.0625 -3.171875 C 3.332031 -2.671875 3.703125 -2.273438 4.171875 -1.984375 C 4.640625 -1.703125 5.15625 -1.5625 5.71875 -1.5625 C 6.289062 -1.5625 6.804688 -1.703125 7.265625 -1.984375 C 7.722656 -2.273438 8.082031 -2.671875 8.34375 -3.171875 C 8.613281 -3.671875 8.742188 -4.242188 8.734375 -4.890625 Z M 8.734375 -4.890625" transform="translate(81.424 201.744)"/></g></g></g><g fill="#757676"><g><g><path d="M 6.796875 -7.6875 C 6.671875 -7.75 6.519531 -7.800781 6.34375 -7.84375 C 6.164062 -7.894531 5.976562 -7.921875 5.78125 -7.921875 C 5.382812 -7.921875 4.992188 -7.816406 4.609375 -7.609375 C 4.222656 -7.398438 3.898438 -7.109375 3.640625 -6.734375 C 3.390625 -6.359375 3.265625 -5.910156 3.265625 -5.390625 L 3.265625 0 L 1.34375 0 L 1.34375 -9.75 L 3.265625 -9.75 L 3.265625 -7.921875 C 3.535156 -8.515625 3.945312 -9 4.5 -9.375 C 5.050781 -9.757812 5.632812 -9.953125 6.25 -9.953125 C 6.695312 -9.953125 7.046875 -9.890625 7.296875 -9.765625 Z M 6.796875 -7.6875" transform="translate(92.845 201.744)"/></g></g></g><g fill="#757676"><g><g><path d="M 4.453125 0 L 2.546875 0 L 2.546875 -7.890625 L 0.515625 -7.890625 L 0.515625 -9.75 L 2.546875 -9.75 L 2.546875 -12.25 L 4.453125 -12.25 L 4.453125 -9.75 L 6.71875 -9.75 L 6.71875 -7.890625 L 4.453125 -7.890625 Z M 4.453125 0" transform="translate(100.33 201.744)"/></g></g></g><g fill="#757676"><g><g><path d="M 6.96875 -7.1875 C 6.625 -7.53125 6.226562 -7.8125 5.78125 -8.03125 C 5.34375 -8.257812 4.9375 -8.375 4.5625 -8.375 C 4.3125 -8.375 4.054688 -8.34375 3.796875 -8.28125 C 3.546875 -8.21875 3.332031 -8.101562 3.15625 -7.9375 C 2.976562 -7.769531 2.890625 -7.523438 2.890625 -7.203125 C 2.910156 -6.765625 3.113281 -6.453125 3.5 -6.265625 C 3.894531 -6.078125 4.378906 -5.910156 4.953125 -5.765625 C 5.460938 -5.628906 5.957031 -5.457031 6.4375 -5.25 C 6.925781 -5.039062 7.328125 -4.738281 7.640625 -4.34375 C 7.960938 -3.957031 8.125 -3.414062 8.125 -2.71875 C 8.125 -2.101562 7.953125 -1.578125 7.609375 -1.140625 C 7.265625 -0.710938 6.820312 -0.382812 6.28125 -0.15625 C 5.75 0.0703125 5.1875 0.1875 4.59375 0.1875 C 3.882812 0.1875 3.1875 0.0625 2.5 -0.1875 C 1.8125 -0.445312 1.226562 -0.882812 0.75 -1.5 L 2.046875 -2.625 C 2.378906 -2.238281 2.757812 -1.9375 3.1875 -1.71875 C 3.613281 -1.5 4.132812 -1.390625 4.75 -1.390625 C 4.988281 -1.390625 5.222656 -1.429688 5.453125 -1.515625 C 5.691406 -1.597656 5.894531 -1.726562 6.0625 -1.90625 C 6.226562 -2.082031 6.3125 -2.328125 6.3125 -2.640625 C 6.3125 -2.929688 6.222656 -3.160156 6.046875 -3.328125 C 5.867188 -3.492188 5.628906 -3.628906 5.328125 -3.734375 C 5.035156 -3.847656 4.707031 -3.945312 4.34375 -4.03125 C 3.8125 -4.175781 3.285156 -4.359375 2.765625 -4.578125 C 2.253906 -4.796875 1.828125 -5.101562 1.484375 -5.5 C 1.148438 -5.90625 0.984375 -6.457031 0.984375 -7.15625 C 0.984375 -7.738281 1.144531 -8.234375 1.46875 -8.640625 C 1.800781 -9.054688 2.234375 -9.378906 2.765625 -9.609375 C 3.296875 -9.835938 3.867188 -9.953125 4.484375 -9.953125 C 5.054688 -9.953125 5.679688 -9.828125 6.359375 -9.578125 C 7.046875 -9.335938 7.613281 -8.941406 8.0625 -8.390625 Z M 6.96875 -7.1875" transform="translate(107.461 201.744)"/></g></g></g><g fill="#757676"><g><g><path d="M 10.40625 0 L 9.171875 -3.234375 L 3.734375 -3.234375 L 2.515625 0 L 0.46875 0 L 5.5 -13 L 7.546875 -13 L 12.546875 0 Z M 5.46875 -7.765625 L 4.484375 -5.171875 L 8.453125 -5.171875 L 7.4375 -7.84375 C 7.269531 -8.269531 7.101562 -8.734375 6.9375 -9.234375 C 6.78125 -9.742188 6.625 -10.25 6.46875 -10.75 C 6.289062 -10.226562 6.117188 -9.707031 5.953125 -9.1875 C 5.785156 -8.675781 5.625 -8.203125 5.46875 -7.765625 Z M 5.46875 -7.765625" transform="translate(116.357 201.744)"/></g></g></g><g fill="#757676"><g><g><path d="M 10.484375 -13.75 L 10.484375 0 L 8.5625 0 L 8.5625 -1.375 C 8.28125 -0.988281 7.859375 -0.628906 7.296875 -0.296875 C 6.742188 0.0234375 6.113281 0.1875 5.40625 0.1875 C 4.53125 0.1875 3.738281 -0.0234375 3.03125 -0.453125 C 2.320312 -0.890625 1.765625 -1.492188 1.359375 -2.265625 C 0.953125 -3.035156 0.75 -3.910156 0.75 -4.890625 C 0.75 -5.878906 0.953125 -6.753906 1.359375 -7.515625 C 1.765625 -8.273438 2.3125 -8.867188 3 -9.296875 C 3.695312 -9.734375 4.476562 -9.953125 5.34375 -9.953125 C 6.039062 -9.953125 6.671875 -9.8125 7.234375 -9.53125 C 7.796875 -9.25 8.238281 -8.914062 8.5625 -8.53125 L 8.5625 -13.75 Z M 5.671875 -1.46875 C 6.265625 -1.46875 6.78125 -1.613281 7.21875 -1.90625 C 7.664062 -2.207031 8.015625 -2.617188 8.265625 -3.140625 C 8.515625 -3.660156 8.640625 -4.242188 8.640625 -4.890625 C 8.640625 -5.546875 8.515625 -6.128906 8.265625 -6.640625 C 8.015625 -7.148438 7.664062 -7.550781 7.21875 -7.84375 C 6.78125 -8.144531 6.265625 -8.296875 5.671875 -8.296875 C 5.085938 -8.296875 4.570312 -8.144531 4.125 -7.84375 C 3.675781 -7.550781 3.320312 -7.148438 3.0625 -6.640625 C 2.8125 -6.128906 2.6875 -5.546875 2.6875 -4.890625 C 2.6875 -4.242188 2.8125 -3.660156 3.0625 -3.140625 C 3.320312 -2.617188 3.675781 -2.207031 4.125 -1.90625 C 4.570312 -1.613281 5.085938 -1.46875 5.671875 -1.46875 Z M 5.671875 -1.46875" transform="translate(129.357 201.744)"/></g></g></g><g fill="#757676"><g><g><path d="M 6.296875 -9.921875 C 7.097656 -9.921875 7.738281 -9.738281 8.21875 -9.375 C 8.707031 -9.007812 9.054688 -8.507812 9.265625 -7.875 C 9.441406 -8.1875 9.695312 -8.5 10.03125 -8.8125 C 10.363281 -9.125 10.753906 -9.382812 11.203125 -9.59375 C 11.648438 -9.8125 12.128906 -9.921875 12.640625 -9.921875 C 13.472656 -9.921875 14.125 -9.738281 14.59375 -9.375 C 15.070312 -9.007812 15.40625 -8.519531 15.59375 -7.90625 C 15.789062 -7.289062 15.890625 -6.609375 15.890625 -5.859375 L 15.890625 0 L 13.953125 0 L 13.953125 -5.734375 C 13.953125 -6.453125 13.816406 -7.035156 13.546875 -7.484375 C 13.273438 -7.929688 12.757812 -8.15625 12 -8.15625 C 11.28125 -8.15625 10.6875 -7.925781 10.21875 -7.46875 C 9.757812 -7.019531 9.53125 -6.472656 9.53125 -5.828125 L 9.53125 0 L 7.59375 0 L 7.59375 -5.78125 C 7.59375 -6.46875 7.441406 -7.035156 7.140625 -7.484375 C 6.847656 -7.929688 6.363281 -8.15625 5.6875 -8.15625 C 5.21875 -8.15625 4.796875 -8.050781 4.421875 -7.84375 C 4.046875 -7.632812 3.753906 -7.359375 3.546875 -7.015625 C 3.335938 -6.671875 3.234375 -6.289062 3.234375 -5.875 L 3.234375 0 L 1.296875 0 L 1.296875 -9.75 L 3.234375 -9.75 L 3.234375 -8.1875 C 3.523438 -8.632812 3.941406 -9.035156 4.484375 -9.390625 C 5.023438 -9.742188 5.628906 -9.921875 6.296875 -9.921875 Z M 6.296875 -9.921875" transform="translate(141.132 201.744)"/></g></g></g><g fill="#757676"><g><g><path d="M 2.96875 -11.609375 C 2.53125 -11.609375 2.207031 -11.71875 2 -11.9375 C 1.789062 -12.164062 1.6875 -12.457031 1.6875 -12.8125 C 1.6875 -13.125 1.789062 -13.40625 2 -13.65625 C 2.207031 -13.90625 2.53125 -14.03125 2.96875 -14.03125 C 3.40625 -14.03125 3.726562 -13.914062 3.9375 -13.6875 C 4.144531 -13.46875 4.25 -13.175781 4.25 -12.8125 C 4.25 -12.507812 4.144531 -12.234375 3.9375 -11.984375 C 3.726562 -11.734375 3.40625 -11.609375 2.96875 -11.609375 Z M 3.25 0 L 1.34375 0 L 1.34375 -9.75 L 3.25 -9.75 Z M 3.25 0" transform="translate(158.236 201.744)"/></g></g></g><g fill="#757676"><g><g><path d="M 6.453125 -9.953125 C 7.328125 -9.953125 8.003906 -9.769531 8.484375 -9.40625 C 8.972656 -9.050781 9.3125 -8.570312 9.5 -7.96875 C 9.695312 -7.363281 9.796875 -6.6875 9.796875 -5.9375 L 9.796875 0 L 7.875 0 L 7.875 -5.8125 C 7.875 -6.28125 7.8125 -6.703125 7.6875 -7.078125 C 7.5625 -7.453125 7.347656 -7.742188 7.046875 -7.953125 C 6.753906 -8.160156 6.34375 -8.25 5.8125 -8.21875 C 5.320312 -8.21875 4.882812 -8.109375 4.5 -7.890625 C 4.113281 -7.679688 3.804688 -7.40625 3.578125 -7.0625 C 3.359375 -6.71875 3.25 -6.332031 3.25 -5.90625 L 3.25 0 L 1.34375 0 L 1.34375 -9.75 L 3.25 -9.75 L 3.25 -8.21875 C 3.550781 -8.675781 3.984375 -9.078125 4.546875 -9.421875 C 5.117188 -9.773438 5.753906 -9.953125 6.453125 -9.953125 Z M 6.453125 -9.953125" transform="translate(163.399 201.744)"/></g></g></g></svg>